# xmcd
#
# Track frame offsets:
#	150
#	29318
#	41920
#	61273
#	74791
#	97994
#	123552
#	153300
#	175480
#	195145
#	225327
#	243127
#	257395
#	270117
#
# Disc length: 3978 seconds
#
# Revision: 1
# Processed by: cddbd v1.5.2PL0 Copyright (c) Steve Scherf et al.
# Submitted via: dBpowerAMP V4.0
#
DISCID=ae0f880e
DTITLE=Various Artist - Basil's bar blues vol 2
DYEAR=2004
DGENRE=Blues
TTITLE0=Zach Prather - My woman has a black cat bone
TTITLE1=Hans Theessink - Mercury Blues
TTITLE2=Dana Gillespie - Sweet tooth
TTITLE3=Diz Watson - Saturday night boogie woogie man
TTITLE4=EB Davis - I wanna talk about you
TTITLE5=Felix Dennis - You can't judge a book by the cover
TTITLE6=Zach Prather - The sky is crying
TTITLE7=Julien Brunetaud - Take a little walk with me
TTITLE8=EB Davis - 29 Ways
TTITLE9=Hans Theessink - Highway 61
TTITLE10=Dana Gillespie - Come on (if you're coming)
TTITLE11=Zach Prather - Further on up the road
TTITLE12=Julien Brunetaud - Bumper Boogie
TTITLE13=Diz Watson - ABC
EXTD=
EXTT0=
EXTT1=
EXTT2=
EXTT3=
EXTT4=
EXTT5=
EXTT6=
EXTT7=
EXTT8=
EXTT9=
EXTT10=
EXTT11=
EXTT12=
EXTT13=
PLAYORDER=
